# xmcd CD database file
#
# Track frame offsets:
#	150
#	17686
#	40080
#	60022
#	73566
#	90473
#	108758
#	123297
#	147457
#
# Disc length: 2275 seconds
#
# Revision: 0
# Processed by: cddbd v1.5.1PL0 Copyright (c) Steve Scherf et al.
# Submitted via: CDex 1.51
#
DISCID=6808e109
DTITLE=Various Artist - てんほー牌娘テーマソングＣＤ
DYEAR=2004
DGENRE=Pop
TTITLE0=愛牌娘
TTITLE1=星と力と孤独を抱いて
TTITLE2=お茶飲んで茶チャチャ！
TTITLE3=ああ人生だんだら模様
TTITLE4=あ・げ・る
TTITLE5=放鳥〜はなちどり〜
TTITLE6=たぬたぬ音頭
TTITLE7=素直になりたくて
TTITLE8=さよならは希望の言葉
EXTD=YEAR: 2004
EXTT0=
EXTT1=
EXTT2=
EXTT3=
EXTT4=
EXTT5=
EXTT6=
EXTT7=
EXTT8=
PLAYORDER=
